<?xml version="1.0" standalone="no"?>
<!DOCTYPE svg PUBLIC "-//W3C//DTD SVG 20010904//EN"
 "http://www.w3.org/TR/2001/REC-SVG-20010904/DTD/svg10.dtd">
<svg version="1.0" xmlns="http://www.w3.org/2000/svg"
 width="2048.000000pt" height="2048.000000pt" viewBox="0 0 2048.000000 2048.000000"
 preserveAspectRatio="xMidYMid meet">

<g transform="translate(0.000000,2048.000000) scale(0.100000,-0.100000)"
fill="#000000" stroke="none">
<path d="M9965 19574 c-22 -2 -105 -8 -185 -14 -1009 -73 -2022 -466 -2810
-1089 -252 -199 -549 -483 -744 -711 -1145 -1338 -1579 -3140 -1160 -4813 160
-641 456 -1270 854 -1818 239 -329 764 -1222 2457 -4184 331 -577 786 -1367
1013 -1755 226 -388 509 -872 628 -1077 120 -205 220 -372 224 -373 19 -1 111
146 240 380 41 74 191 335 335 580 143 245 521 902 840 1460 571 998 726 1268
1155 2005 118 204 289 501 380 660 634 1112 804 1408 979 1700 109 182 241
393 294 470 53 77 134 196 180 265 675 1024 991 2179 915 3345 -108 1642 -998
3171 -2380 4092 -726 483 -1541 771 -2435 859 -141 14 -692 27 -780 18z m715
-2553 c570 -102 1044 -352 1460 -770 224 -225 352 -399 494 -671 202 -388 298
-785 298 -1235 0 -706 -257 -1339 -752 -1849 -373 -385 -821 -642 -1320 -760
-485 -114 -1008 -91 -1475 66 -912 305 -1608 1098 -1791 2038 -59 308 -59 716
1 1034 185 972 893 1751 1865 2049 186 57 315 84 585 121 17 2 140 3 275 1
193 -2 269 -7 360 -24z"/>
<path d="M7840 4749 c-779 -88 -1758 -378 -2408 -714 -314 -162 -528 -310
-708 -489 -214 -213 -305 -398 -307 -621 0 -136 16 -204 83 -340 64 -128 128
-214 260 -345 305 -305 769 -563 1395 -777 622 -212 1385 -370 2225 -463 674
-73 1088 -95 1850 -95 590 0 786 7 1260 41 1562 112 2898 436 3700 897 224
129 380 246 535 401 127 127 192 215 255 341 67 136 83 204 83 340 -2 223 -93
408 -307 620 -171 170 -381 318 -666 468 -561 295 -1395 565 -2140 691 -189
32 -402 56 -487 55 l-68 -1 60 -28 c33 -15 150 -59 260 -98 263 -92 331 -120
476 -192 469 -235 756 -526 815 -825 25 -129 8 -242 -58 -384 -142 -309 -528
-607 -1053 -814 -699 -275 -1602 -418 -2645 -418 -474 -1 -749 15 -1170 67
-1301 160 -2263 590 -2535 1132 -186 371 -19 770 454 1086 143 95 307 172 704
326 l382 150 -85 -2 c-47 0 -119 -4 -160 -9z"/>
</g>
</svg>
